<?xml version="1.0" encoding="UTF-8"?>
<svg id="Layer_1" xmlns="http://www.w3.org/2000/svg" version="1.1" viewBox="0 0 82 37">
  <!-- Generator: Adobe Illustrator 29.7.1, SVG Export Plug-In . SVG Version: 2.1.1 Build 8)  -->
  <defs>
    <style>
      .st0 {
        fill: #fff;
        fill-rule: evenodd;
      }
    </style>
  </defs>
  <path class="st0" d="M62.2,29.5H13V7.1h49.2v22.4ZM10.4,0C8.5,0,6.9,1.8,6.9,4v5.5h-3.1c-1.9,0-3.5,1.8-3.5,4v9.4c0,2.2,1.6,4,3.5,4h3.1v5.5c0,2.2,1.6,4,3.5,4h54.4c1.9,0,3.5-1.8,3.5-4V4.1c0-2.2-1.6-4-3.5-4H10.4ZM37.7,18.6l-2.3,7.9,7.8-10.4c.3-.4,0-.9-.5-.9h-4.2l1.7-4.3c0-.4,0-.8-.5-.8h-4.7c-.2,0-.4.1-.5.4l-2.7,7.3c-.1.4.1.8.5.8,0,0,5.4,0,5.4,0Z"/>
</svg>