<?xml version="1.0" encoding="UTF-8"?>
<svg id="Layer_1" xmlns="http://www.w3.org/2000/svg" version="1.1" viewBox="0 0 82 38">
  <!-- Generator: Adobe Illustrator 29.7.1, SVG Export Plug-In . SVG Version: 2.1.1 Build 8)  -->
  <defs>
    <style>
      .st0 {
        fill: #fff;
        fill-rule: evenodd;
      }
    </style>
  </defs>
  <path class="st0" d="M13,30.1h22.3s-4.7-2.5,0-11.2c4.7-8.7,0-11.2,0-11.2H13s0,22.4,0,22.4ZM6.8,4.7c0-2.2,1.6-4,3.5-4h54.4c1.9,0,3.5,1.8,3.5,4v28.4c0,2.2-1.6,4-3.5,4H10.4c-1.9,0-3.5-1.8-3.5-4v-5.5h-3.1c-1.9,0-3.5-1.8-3.5-4v-9.4c0-2.2,1.6-4,3.5-4h3.1v-5.5h0Z"/>
</svg>